# xmcd
#
# Track frame offsets:
#	150
#	18101
#	33103
#	49759
#	68731
#	87221
#	100538
#	120670
#	138188
#	153038
#	168386
#	185899
#	199900
#
# Disc length: 2948 seconds
# Revision: 0
# Processed by: cddbd v1.5.2PL0 Copyright (c) Steve Scherf et al.
# Submitted via: dBpowerAMP V12.0
#
DISCID=9c0b820d
DTITLE=Various Artist - Spirit To The Sea
DYEAR=2017
DGENRE=Americana
TTITLE0=Trout Steak Revival - Last Chance
TTITLE1=Trout Steak Revival - You Are Not Alone
TTITLE2=Trout Steak Revival - Spirit
TTITLE3=Trout Steak Revival - I Am
TTITLE4=Trout Steak Revival - Fall at Your Feet
TTITLE5=Trout Steak Revival - Side of the Road
TTITLE6=Trout Steak Revival feat. the Shook Twins - They Sang to Us
TTITLE7=Trout Steak Revival - Ocean Lady
TTITLE8=Trout Steak Revival - Take Heart
TTITLE9=Trout Steak Revival - The Light
TTITLE10=Trout Steak Revival - Loving is Leaving
TTITLE11=Trout Steak Revival - No Sweat
TTITLE12=Trout Steak Revival - Feeling So Good
EXTD=
EXTT0=
EXTT1=
EXTT2=
EXTT3=
EXTT4=
EXTT5=
EXTT6=
EXTT7=
EXTT8=
EXTT9=
EXTT10=
EXTT11=
EXTT12=
PLAYORDER=
